# xmcd
# Track frame offsets:
# 150
# 12136
# 26598
# 38492
# 49791
# 64136
# 76345
# 90488
# 105284
# 117244
# 131235
# 143377
#
# Disc length: 2049 seconds
# Revision: 2
# Processed by: cddbd v1.5.2PL0 Copyright (c) Steve Scherf et al.
# Submitted via: VisiTrax 2.11.2.271 - For more info visit www.synapsa.com
#
DISCID=8a07ff0c
DTITLE=Slim Dusty - Australian Bush Ballads
DYEAR=1965
DGENRE=Australian Country
TTITLE0=When The Rain Tumbles Down In July
TTITLE1=Rope And Saddle
TTITLE2=The Old Rocking Horse
TTITLE3=The Dying Stockman
TTITLE4=Bill
TTITLE5=The Black Velvet Band
TTITLE6=A Word To Texas Jack
TTITLE7=Cattle Camp Reverie
TTITLE8=Whoa Bullocks Whoa
TTITLE9=The Battle With The Roan
TTITLE10=Eumerella Shore
TTITLE11=Itching Feet
EXTD=2005 EMI Music Australia Pty Limited
EXTT0=
EXTT1=
EXTT2=
EXTT3=
EXTT4=
EXTT5=
EXTT6=
EXTT7=
EXTT8=
EXTT9=
EXTT10=
EXTT11=
PLAYORDER=
